<?xml version="1.0" encoding="UTF-8" standalone="no"?>
<!DOCTYPE svg PUBLIC "-//W3C//DTD SVG 1.1//EN" "http://www.w3.org/Graphics/SVG/1.1/DTD/svg11.dtd">
<svg width="100%" height="100%" viewBox="0 0 32 16" version="1.1" xmlns="http://www.w3.org/2000/svg" xmlns:xlink="http://www.w3.org/1999/xlink" xml:space="preserve" xmlns:serif="http://www.serif.com/" style="fill-rule:evenodd;clip-rule:evenodd;stroke-linejoin:round;stroke-miterlimit:2;">
    <g transform="matrix(0.0576932,0,0,0.0576932,-26.9091,-5.96751)">
        <path d="M795.337,249.993C840.11,192.726 905.898,152.275 977.208,138.166C988.374,135.957 999.855,134.369 1011.12,136.021C1015.59,136.678 1020.96,138.967 1021.07,143.491C1021.14,146.151 1019.24,148.418 1017.36,150.301C1010.62,157.051 1002.7,162.479 994.702,167.681C964.35,187.432 932.279,204.54 898.969,218.747C914.873,216.617 930.987,216.064 947,217.098C952.198,217.434 957.565,217.99 962.093,220.563C966.622,223.136 970.103,228.249 969.202,233.379C967.979,240.339 960.07,243.654 953.226,245.416C931.641,250.972 909.205,253.205 886.948,252.015C904.325,253.997 921.191,260.309 935.601,270.22C938.277,272.061 941.049,274.286 941.78,277.451C942.679,281.339 940.013,285.359 936.507,287.265C933.001,289.172 928.858,289.425 924.868,289.495C885.167,290.19 846.705,276.927 795.337,249.993Z" style="fill:rgb(234,237,230);fill-rule:nonzero;"/>
        <path d="M682.208,242.413C642.518,181.513 580.446,135.562 510.612,115.382C499.677,112.222 488.375,109.655 477.013,110.334C472.495,110.604 466.949,112.424 466.451,116.921C466.158,119.566 467.852,121.987 469.564,124.024C475.698,131.327 483.131,137.417 490.649,143.286C519.192,165.571 549.676,185.369 581.643,202.384C565.981,198.897 549.973,196.962 533.931,196.617C528.724,196.505 523.329,196.599 518.596,198.773C513.863,200.947 509.955,205.743 510.413,210.931C511.034,217.971 518.629,221.952 525.296,224.295C546.324,231.684 568.486,235.836 590.763,236.561C573.28,237.044 555.934,241.883 540.726,250.521C537.902,252.125 534.949,254.104 533.949,257.194C532.72,260.99 535.031,265.224 538.36,267.425C541.689,269.626 545.796,270.234 549.765,270.646C589.259,274.748 628.718,264.836 682.208,242.413Z" style="fill:rgb(234,237,230);fill-rule:nonzero;"/>
        <path d="M725.131,215.742C726.121,196.182 723.381,176.44 717.101,157.889C712.594,144.575 706.028,131.547 695.497,122.236C684.967,112.925 669.904,107.901 656.459,111.998C639.37,117.206 629.141,135.709 627.985,153.536C626.829,171.363 632.848,188.786 638.783,205.636C654.59,250.514 686.033,332.926 703.563,373.975C741.998,327.415 843.777,223.866 862.284,163.968C866.947,148.875 867.804,130.031 855.818,119.742C849.291,114.138 840.094,112.391 831.556,113.445C823.018,114.498 815.001,118.075 807.403,122.11C774.663,139.495 747.054,166.404 725.131,215.742Z" style="fill:rgb(119,136,143);fill-rule:nonzero;"/>
    </g>
</svg>
